<svg t="1783844875502" class="icon" viewBox="0 0 1024 1024" version="1.1" xmlns="http://www.w3.org/2000/svg" p-id="5332" width="200" height="200">
  <path d="M512 512m-512 0a512 512 0 1 0 1024 0 512 512 0 1 0-1024 0Z" fill="#66B3FE" p-id="5333"></path>
  <path d="M520.106667 521.386667m-398.08 0a398.08 398.08 0 1 0 796.16 0 398.08 398.08 0 1 0-796.16 0Z" fill="#464650" p-id="5334"></path>
  <path d="M450.56 448.853333a846.506667 846.506667 0 0 0 136.533333 0s2.56 2.56 12.8-42.666666A85.333333 85.333333 0 0 1 644.693333 341.333333a89.173333 89.173333 0 0 1 104.96 14.506667c42.666667 42.666667 55.893333 115.2 49.066667 195.413333a271.786667 271.786667 0 0 1-65.28 143.786667A263.253333 263.253333 0 0 1 637.013333 768a271.36 271.36 0 0 1-106.666666 21.76 277.76 277.76 0 0 1-204.373334-77.226667 283.733333 283.733333 0 0 1-85.333333-197.973333 252.16 252.16 0 0 1 32.426667-136.533333 89.6 89.6 0 0 1 42.666666-39.253334A113.493333 113.493333 0 0 1 404.48 341.333333c43.52 20.053333 46.08 107.52 46.08 107.52z" fill="#FFFFFF" p-id="5335"></path>
  <path d="M213.333333 771.413333s228.693333 128 460.373334 0a422.826667 422.826667 0 0 0 232.533333-341.333333s71.253333 298.666667-182.613333 433.066667S287.573333 864.426667 213.333333 771.413333z" fill="#373740" p-id="5336"></path>
  <path d="M431.786667 442.453333m25.173333 0l125.866667 0q25.173333 0 25.173333 25.173334l0 17.066666q0 25.173333-25.173333 25.173334l-125.866667 0q-25.173333 0-25.173333-25.173334l0-17.066666q0-25.173333 25.173333-25.173334Z" fill="#F44444" p-id="5337"></path>
  <path d="M347.306667 456.533333m-39.253334 0a39.253333 39.253333 0 1 0 78.506667 0 39.253333 39.253333 0 1 0-78.506667 0Z" fill="#373740" p-id="5338"></path>
  <path d="M694.186667 456.533333m-39.253334 0a39.253333 39.253333 0 1 0 78.506667 0 39.253333 39.253333 0 1 0-78.506667 0Z" fill="#373740" p-id="5339"></path>
</svg>
